{
  "accessors": [
    {
      "bufferView": 2,
      "componentType": 5126,
      "count": 1288,
      "max": [
        53.83409881591797,
        361.44415283203125,
        53.83407974243164
      ],
      "min": [
        -53.8341064453125,
        0.0,
        -53.8341178894043
      ],
      "type": "VEC3"
    },
    {
      "bufferView": 2,
      "byteOffset": 15456,
      "componentType": 5126,
      "count": 1288,
      "max": [
        0.9998049139976501,
        1.0,
        0.9998049139976501
      ],
      "min": [
        -0.9998049736022949,
        -1.0,
        -0.9998049139976501
      ],
      "type": "VEC3"
    },
    {
      "bufferView": 3,
      "componentType": 5126,
      "count": 1288,
      "max": [
        0.9874264001846313,
        0.9998047947883606,
        0.9877035021781921,
        1.0
      ],
      "min": [
        -0.9908819794654846,
        -0.9992144703865051,
        -0.996802806854248,
        1.0
      ],
      "type": "VEC4"
    },
    {
      "bufferView": 1,
      "componentType": 5126,
      "count": 1288,
      "max": [
        0.7437713146209717,
        0.9943500757217407
      ],
      "min": [
        0.005649916362017393,
        0.005649916362017393
      ],
      "type": "VEC2"
    },
    {
      "bufferView": 0,
      "componentType": 5125,
      "count": 6336,
      "type": "SCALAR"
    },
    {
      "bufferView": 2,
      "byteOffset": 30912,
      "componentType": 5126,
      "count": 809,
      "max": [
        33.44448471069336,
        367.80419921875,
        23.972944259643555
      ],
      "min": [
        -33.44448471069336,
        297.27789306640625,
        -26.917526245117188
      ],
      "type": "VEC3"
    },
    {
      "bufferView": 2,
      "byteOffset": 40620,
      "componentType": 5126,
      "count": 809,
      "max": [
        0.9884204268455505,
        0.9899536967277527,
        0.9999812245368958
      ],
      "min": [
        -0.9884204268455505,
        -0.9947606921195984,
        -0.9999237656593323
      ],
      "type": "VEC3"
    },
    {
      "bufferView": 3,
      "byteOffset": 20608,
      "componentType": 5126,
      "count": 809,
      "max": [
        0.9986444711685181,
        0.9999812841415405,
        0.9611548185348511,
        1.0
      ],
      "min": [
        -0.9986444711685181,
        -0.9999852776527405,
        -0.9443804621696472,
        -1.0
      ],
      "type": "VEC4"
    },
    {
      "bufferView": 1,
      "byteOffset": 10304,
      "componentType": 5126,
      "count": 809,
      "max": [
        0.9526971578598022,
        0.996955156326294
      ],
      "min": [
        0.0030448397155851126,
        0.0030448397155851126
      ],
      "type": "VEC2"
    },
    {
      "bufferView": 0,
      "byteOffset": 25344,
      "componentType": 5125,
      "count": 3564,
      "type": "SCALAR"
    },
    {
      "bufferView": 2,
      "byteOffset": 50328,
      "componentType": 5126,
      "count": 423,
      "max": [
        19.51416778564453,
        379.2514343261719,
        19.514148712158203
      ],
      "min": [
        -19.51418685913086,
        319.5968322753906,
        -19.514204025268555
      ],
      "type": "VEC3"
    },
    {
      "bufferView": 2,
      "byteOffset": 55404,
      "componentType": 5126,
      "count": 423,
      "max": [
        1.0,
        1.0,
        1.0
      ],
      "min": [
        -1.0,
        -1.0,
        -1.0
      ],
      "type": "VEC3"
    },
    {
      "bufferView": 3,
      "byteOffset": 33552,
      "componentType": 5126,
      "count": 423,
      "max": [
        0.43968093395233154,
        0.9887000918388367,
        0.8913668394088745,
        1.0
      ],
      "min": [
        -0.9960611462593079,
        -0.9999997019767761,
        -0.3163995146751404,
        1.0
      ],
      "type": "VEC4"
    },
    {
      "bufferView": 1,
      "byteOffset": 16776,
      "componentType": 5126,
      "count": 423,
      "max": [
        0.9366493821144104,
        0.9998569488525391
      ],
      "min": [
        0.00014297975576482713,
        0.00014297975576482713
      ],
      "type": "VEC2"
    },
    {
      "bufferView": 0,
      "byteOffset": 39600,
      "componentType": 5125,
      "count": 2112,
      "type": "SCALAR"
    },
    {
      "bufferView": 2,
      "byteOffset": 60480,
      "componentType": 5126,
      "count": 400,
      "max": [
        49.77203369140625,
        224.85191345214844,
        49.772010803222656
      ],
      "min": [
        -49.77204513549805,
        12.316274642944336,
        -49.772064208984375
      ],
      "type": "VEC3"
    },
    {
      "bufferView": 2,
      "byteOffset": 65280,
      "componentType": 5126,
      "count": 400,
      "max": [
        0.99892258644104,
        1.0,
        0.9989225268363953
      ],
      "min": [
        -0.99892258644104,
        -1.0,
        -0.99892258644104
      ],
      "type": "VEC3"
    },
    {
      "bufferView": 3,
      "byteOffset": 40320,
      "componentType": 5126,
      "count": 400,
      "max": [
        1.0,
        0.507807731628418,
        1.0,
        1.0
      ],
      "min": [
        -0.9999997019767761,
        -0.5078142881393433,
        -1.0,
        1.0
      ],
      "type": "VEC4"
    },
    {
      "bufferView": 1,
      "byteOffset": 20160,
      "componentType": 5126,
      "count": 400,
      "max": [
        0.9998792409896851,
        0.7511593103408813
      ],
      "min": [
        0.00012074969708919525,
        0.00012074876576662064
      ],
      "type": "VEC2"
    },
    {
      "bufferView": 0,
      "byteOffset": 48048,
      "componentType": 5125,
      "count": 1920,
      "type": "SCALAR"
    }
  ],
  "asset": {
    "extras": {
      "author": "tadeomosconi (https://sketchfab.com/tadeomosconi)",
      "license": "CC-BY-4.0 (http://creativecommons.org/licenses/by/4.0/)",
      "source": "https://sketchfab.com/3d-models/old-bottle-ee25aa51679042609dd3295fdeb99a65",
      "title": "Old Bottle"
    },
    "generator": "Sketchfab-12.65.0",
    "version": "2.0"
  },
  "bufferViews": [
    {
      "buffer": 0,
      "byteLength": 55728,
      "name": "floatBufferViews",
      "target": 34963
    },
    {
      "buffer": 0,
      "byteLength": 23360,
      "byteOffset": 55728,
      "byteStride": 8,
      "name": "floatBufferViews",
      "target": 34962
    },
    {
      "buffer": 0,
      "byteLength": 70080,
      "byteOffset": 79088,
      "byteStride": 12,
      "name": "floatBufferViews",
      "target": 34962
    },
    {
      "buffer": 0,
      "byteLength": 46720,
      "byteOffset": 149168,
      "byteStride": 16,
      "name": "floatBufferViews",
      "target": 34962
    }
  ],
  "buffers": [
    {
      "byteLength": 195888,
      "uri": "scene.bin"
    }
  ],
  "images": [
    {
      "uri": "textures/Glass_baseColor.png"
    },
    {
      "uri": "textures/Glass_metallicRoughness.png"
    },
    {
      "uri": "textures/Glass_normal.png"
    },
    {
      "uri": "textures/Metal_baseColor.png"
    },
    {
      "uri": "textures/Metal_metallicRoughness.png"
    },
    {
      "uri": "textures/Metal_normal.png"
    },
    {
      "uri": "textures/material_baseColor.png"
    },
    {
      "uri": "textures/material_metallicRoughness.png"
    },
    {
      "uri": "textures/material_normal.png"
    },
    {
      "uri": "textures/Water_baseColor.png"
    },
    {
      "uri": "textures/Water_metallicRoughness.png"
    },
    {
      "uri": "textures/Water_normal.png"
    }
  ],
  "materials": [
    {
      "alphaMode": "BLEND",
      "doubleSided": true,
      "name": "Glass",
      "normalTexture": {
        "index": 2
      },
      "occlusionTexture": {
        "index": 1
      },
      "pbrMetallicRoughness": {
        "baseColorFactor": [
          1.0,
          1.0,
          1.0,
          0.7070101356486633
        ],
        "baseColorTexture": {
          "index": 0
        },
        "metallicRoughnessTexture": {
          "index": 1
        }
      }
    },
    {
      "doubleSided": true,
      "name": "Metal",
      "normalTexture": {
        "index": 5
      },
      "occlusionTexture": {
        "index": 4
      },
      "pbrMetallicRoughness": {
        "baseColorTexture": {
          "index": 3
        },
        "metallicRoughnessTexture": {
          "index": 4
        }
      }
    },
    {
      "doubleSided": true,
      "name": "material",
      "normalTexture": {
        "index": 8
      },
      "occlusionTexture": {
        "index": 7
      },
      "pbrMetallicRoughness": {
        "baseColorTexture": {
          "index": 6
        },
        "metallicRoughnessTexture": {
          "index": 7
        }
      }
    },
    {
      "doubleSided": true,
      "name": "Water",
      "normalTexture": {
        "index": 11
      },
      "occlusionTexture": {
        "index": 10
      },
      "pbrMetallicRoughness": {
        "baseColorTexture": {
          "index": 9
        },
        "metallicRoughnessTexture": {
          "index": 10
        }
      }
    }
  ],
  "meshes": [
    {
      "name": "Bottle_Glass_0",
      "primitives": [
        {
          "attributes": {
            "NORMAL": 1,
            "POSITION": 0,
            "TANGENT": 2,
            "TEXCOORD_0": 3
          },
          "indices": 4,
          "material": 0,
          "mode": 4
        }
      ]
    },
    {
      "name": "Metal_Metal_0",
      "primitives": [
        {
          "attributes": {
            "NORMAL": 6,
            "POSITION": 5,
            "TANGENT": 7,
            "TEXCOORD_0": 8
          },
          "indices": 9,
          "material": 1,
          "mode": 4
        }
      ]
    },
    {
      "name": "Cap_Cap_0",
      "primitives": [
        {
          "attributes": {
            "NORMAL": 11,
            "POSITION": 10,
            "TANGENT": 12,
            "TEXCOORD_0": 13
          },
          "indices": 14,
          "material": 2,
          "mode": 4
        }
      ]
    },
    {
      "name": "Water_Water_0",
      "primitives": [
        {
          "attributes": {
            "NORMAL": 16,
            "POSITION": 15,
            "TANGENT": 17,
            "TEXCOORD_0": 18
          },
          "indices": 19,
          "material": 3,
          "mode": 4
        }
      ]
    }
  ],
  "nodes": [
    {
      "children": [
        1
      ],
      "matrix": [
        1.0,
        0.0,
        0.0,
        0.0,
        0.0,
        2.220446049250313e-16,
        -1.0,
        0.0,
        0.0,
        1.0,
        2.220446049250313e-16,
        0.0,
        0.0,
        0.0,
        0.0,
        1.0
      ],
      "name": "Sketchfab_model"
    },
    {
      "children": [
        2
      ],
      "matrix": [
        1.0,
        0.0,
        0.0,
        0.0,
        0.0,
        0.0,
        1.0,
        0.0,
        0.0,
        -1.0,
        0.0,
        0.0,
        0.0,
        0.0,
        0.0,
        1.0
      ],
      "name": "62a15579c2874253b90e69fba8095d47.fbx"
    },
    {
      "children": [
        3,
        5,
        7,
        9
      ],
      "name": "RootNode"
    },
    {
      "children": [
        4
      ],
      "name": "Bottle"
    },
    {
      "mesh": 0,
      "name": "Bottle_Glass_0"
    },
    {
      "children": [
        6
      ],
      "name": "Metal"
    },
    {
      "mesh": 1,
      "name": "Metal_Metal_0"
    },
    {
      "children": [
        8
      ],
      "name": "Cap"
    },
    {
      "mesh": 2,
      "name": "Cap_Cap_0"
    },
    {
      "children": [
        10
      ],
      "name": "Water"
    },
    {
      "mesh": 3,
      "name": "Water_Water_0"
    }
  ],
  "samplers": [
    {
      "magFilter": 9729,
      "minFilter": 9987,
      "wrapS": 10497,
      "wrapT": 10497
    }
  ],
  "scene": 0,
  "scenes": [
    {
      "name": "Sketchfab_Scene",
      "nodes": [
        0
      ]
    }
  ],
  "textures": [
    {
      "sampler": 0,
      "source": 0
    },
    {
      "sampler": 0,
      "source": 1
    },
    {
      "sampler": 0,
      "source": 2
    },
    {
      "sampler": 0,
      "source": 3
    },
    {
      "sampler": 0,
      "source": 4
    },
    {
      "sampler": 0,
      "source": 5
    },
    {
      "sampler": 0,
      "source": 6
    },
    {
      "sampler": 0,
      "source": 7
    },
    {
      "sampler": 0,
      "source": 8
    },
    {
      "sampler": 0,
      "source": 9
    },
    {
      "sampler": 0,
      "source": 10
    },
    {
      "sampler": 0,
      "source": 11
    }
  ]
}
